<svg xmlns="http://www.w3.org/2000/svg" width="49" height="49" viewBox="0 0 49 49">
  <g id="icon-instagram" transform="translate(-267 -578)">
    <circle id="Ellipse_2" data-name="Ellipse 2" cx="24.5" cy="24.5" r="24.5" transform="translate(267 578)" fill="#c32aa3"/>
    <path id="instagram-brands" d="M9.927,36.7a5.127,5.127,0,1,0,5.127,5.127A5.118,5.118,0,0,0,9.927,36.7Zm0,8.46a3.333,3.333,0,1,1,3.333-3.333,3.339,3.339,0,0,1-3.333,3.333Zm6.532-8.669a1.2,1.2,0,1,1-1.2-1.2A1.193,1.193,0,0,1,16.459,36.486Zm3.4,1.214a5.918,5.918,0,0,0-1.615-4.19A5.956,5.956,0,0,0,14.05,31.9c-1.651-.094-6.6-.094-8.25,0a5.948,5.948,0,0,0-4.19,1.611A5.937,5.937,0,0,0,0,37.7c-.094,1.651-.094,6.6,0,8.25a5.918,5.918,0,0,0,1.615,4.19A5.964,5.964,0,0,0,5.8,51.75c1.651.094,6.6.094,8.25,0a5.918,5.918,0,0,0,4.19-1.615,5.956,5.956,0,0,0,1.615-4.19C19.948,44.295,19.948,39.351,19.855,37.7ZM17.722,47.717a3.374,3.374,0,0,1-1.9,1.9c-1.316.522-4.439.4-5.894.4s-4.582.116-5.894-.4a3.374,3.374,0,0,1-1.9-1.9c-.522-1.316-.4-4.439-.4-5.894s-.116-4.582.4-5.894a3.374,3.374,0,0,1,1.9-1.9c1.316-.522,4.439-.4,5.894-.4s4.582-.116,5.894.4a3.374,3.374,0,0,1,1.9,1.9c.522,1.316.4,4.439.4,5.894S18.244,46.405,17.722,47.717Z" transform="translate(281.075 561.175)" fill="#fff"/>
  </g>
</svg>
