<svg xmlns="http://www.w3.org/2000/svg" width="49" height="49" viewBox="0 0 49 49">
  <g id="icon-behance" transform="translate(-197.5 -578)">
    <circle id="Ellipse_2" data-name="Ellipse 2" cx="24.5" cy="24.5" r="24.5" transform="translate(197.5 578)" fill="#053eff"/>
    <path id="behance-brands" d="M8.056,81.018a2.635,2.635,0,0,0,1.681-2.569C9.736,76,7.91,75.4,5.8,75.4H0V87.706H5.965c2.236,0,4.337-1.073,4.337-3.573A2.965,2.965,0,0,0,8.056,81.018ZM2.7,77.5H5.243c.976,0,1.854.274,1.854,1.406,0,1.045-.684,1.465-1.649,1.465H2.7V77.5ZM5.6,85.615H2.7V82.226H5.653c1.191,0,1.944.5,1.944,1.757C7.6,85.226,6.7,85.615,5.6,85.615Zm12.448-8.358h-4.99V76.046h4.99ZM20,83.379c0-2.635-1.542-4.833-4.337-4.833A4.478,4.478,0,0,0,11.1,83.261a4.34,4.34,0,0,0,4.559,4.677,3.972,3.972,0,0,0,4.17-3h-2.16A2.027,2.027,0,0,1,15.74,86.1a2.015,2.015,0,0,1-2.187-2.267h6.427C19.99,83.692,20,83.535,20,83.379ZM13.556,82.3a1.912,1.912,0,0,1,2.031-1.9,1.824,1.824,0,0,1,1.951,1.9Z" transform="translate(212 519.6)" fill="#fff"/>
  </g>
</svg>
