<svg id="icon-fiverr" xmlns="http://www.w3.org/2000/svg" width="49.055" height="49.055" viewBox="0 0 49.055 49.055">
  <circle id="Ellipse_3" data-name="Ellipse 3" cx="24.527" cy="24.527" r="24.527" fill="#00b22d"/>
  <g id="Group_1" data-name="Group 1" transform="translate(5.727 18.481)">
    <path id="Path_1" data-name="Path 1" d="M343.782,152.172a1.441,1.441,0,1,0-1.447,1.472A1.44,1.44,0,0,0,343.782,152.172Zm-1.447,1.067a1.062,1.062,0,1,1,1.006-1.067A1.025,1.025,0,0,1,342.335,153.239Z" transform="translate(-304.82 -150.7)" fill="#fff"/>
    <path id="Path_2" data-name="Path 2" d="M349.308,157.822a.38.38,0,0,0,.233-.368.436.436,0,0,0-.491-.454h-.65v1.386h.429v-.466h.11l.2.466h.466l-.258-.478A.281.281,0,0,0,349.308,157.822Zm-.368-.2h-.11v-.331h.11c.1,0,.147.049.147.159A.139.139,0,0,1,348.94,157.625Z" transform="translate(-311.401 -156.227)" fill="#fff"/>
    <circle id="Ellipse_4" data-name="Ellipse 4" cx="1.104" cy="1.104" r="1.104" transform="translate(5.997 0.405)" fill="#fff"/>
    <path id="Path_3" data-name="Path 3" d="M54.953,157.9H49.9v-.331c0-.65.65-.662.981-.662a2.974,2.974,0,0,1,.552.037v-1.79a6.343,6.343,0,0,0-.809-.049c-1.055,0-3,.294-3,2.526v.282H46.7v1.656h.92v3.5h-.858v1.656h4.145v-1.656H49.9v-3.5H52.66v3.5H51.8v1.656h4.01v-1.656h-.858Zm8.585,0H59.92v1.656h.613L59.749,162a3.913,3.913,0,0,0-.184.9h-.049a3.913,3.913,0,0,0-.184-.9l-.785-2.453h.613V157.9H55.542v1.656h.76l1.889,5.151h2.7l1.889-5.151h.76Zm6.7,3.127a3.026,3.026,0,0,0-3.164-3.287,3.389,3.389,0,0,0-3.544,3.556,3.53,3.53,0,0,0,3.74,3.569,4.7,4.7,0,0,0,2.931-.957l-.834-1.582a3.759,3.759,0,0,1-1.913.65,1.513,1.513,0,0,1-1.582-1.251h4.317c-.012-.012.049-.478.049-.7Zm-4.317-.564a1.125,1.125,0,0,1,1.091-1.006.931.931,0,0,1,.858,1.006Zm13.993-.993h-.025a2.117,2.117,0,0,0,.025-.343v-.356c0-.625-.343-.871-.969-.871H76.8v1.656h.638a.271.271,0,0,1,.294.294v3.213h-.92v1.656H80.94v-1.656h-.92v-.993c0-1.239.613-2.048,1.876-2.048a2.619,2.619,0,0,1,.466.037V157.81a1.728,1.728,0,0,0-.27-.025,2.337,2.337,0,0,0-2.183,1.68Zm-6.046,0H73.84a2.118,2.118,0,0,0,.025-.343v-.356c0-.625-.343-.871-.969-.871H70.749v1.656h.638a.271.271,0,0,1,.294.294v3.213h-.92v1.656h4.133v-1.656h-.92v-.993c0-1.239.613-2.048,1.876-2.048a2.619,2.619,0,0,1,.466.037V157.81a1.729,1.729,0,0,0-.27-.025,2.314,2.314,0,0,0-2.183,1.68Z" transform="translate(-46.7 -154.56)" fill="#fff"/>
  </g>
</svg>
